<svg xmlns="http://www.w3.org/2000/svg" viewBox="2115.387 2780.688 998.227 64.413"><defs><style>.a{fill:#d4aa00;}.b{fill:#333;}</style></defs><g transform="translate(3113.613 2845.1) rotate(180)"><g transform="translate(0 13.737)"><g transform="translate(125.897 7.632)"><g transform="translate(170.051)"><g transform="translate(0 12.516)"><path class="a" d="M14.917,0c-.3.305-10.143,8.853-10.143,8.853H0L9.248,0Z" transform="translate(11.635 0)"/><path class="a" d="M14.618,0c-.3.305-9.845,8.853-9.845,8.853H0L9.248,0Z" transform="translate(0 0)"/></g><g transform="translate(0.298)"><path class="a" d="M14.917,8.853C14.618,8.548,4.773,0,4.773,0H0L9.248,8.853Z" transform="translate(11.337 0.305)"/><path class="a" d="M14.32,8.853C14.022,8.548,4.773,0,4.773,0H0L9.248,8.853Z"/></g></g><g transform="translate(114.859)"><g transform="translate(0 12.516)"><path class="a" d="M14.917,0c-.3.305-10.143,8.853-10.143,8.853H0L9.248,0Z" transform="translate(11.337 0)"/><path class="a" d="M14.618,0c-.3.305-9.845,8.853-9.845,8.853H0L9.248,0Z" transform="translate(0 0)"/></g><g transform="translate(0)"><path class="a" d="M14.917,8.853C14.618,8.548,4.773,0,4.773,0H0L9.248,8.853Z" transform="translate(11.337 0.305)"/><path class="a" d="M14.32,8.853C14.022,8.548,4.773,0,4.773,0H0L9.248,8.853Z"/></g></g><g transform="translate(59.07)"><g transform="translate(0 12.516)"><path class="a" d="M14.917,0c-.3.305-10.143,8.853-10.143,8.853H0L9.248,0Z" transform="translate(11.337 0)"/><path class="a" d="M14.618,0c-.3.305-9.845,8.853-9.845,8.853H0L9.248,0Z" transform="translate(0 0)"/></g><g transform="translate(0.298)"><path class="a" d="M14.917,8.853C14.618,8.548,4.773,0,4.773,0H0L9.248,8.853Z" transform="translate(11.038 0.305)"/><path class="a" d="M14.32,8.853C14.022,8.548,4.773,0,4.773,0H0L9.248,9.158Z"/></g></g><g transform="translate(0 12.516)"><path class="a" d="M14.917,0c-.3.305-10.143,8.853-10.143,8.853H0L9.248,0Z" transform="translate(11.038 0)"/><path class="a" d="M14.32,0c-.3.305-9.845,8.853-9.845,8.853H0L9.248,0Z" transform="translate(0 0)"/></g><path class="a" d="M14.917,8.853C14.618,8.548,4.773,0,4.773,0H0L9.248,8.853Z" transform="translate(11.038 0.305)"/><path class="a" d="M14.022,8.853C13.723,8.548,4.475,0,4.475,0H0L9.248,8.853Z"/></g><g transform="translate(64.739 6.411)"><path class="a" d="M24.463,12.516A12.235,12.235,0,1,1,0,12.516,12.241,12.241,0,0,1,12.232,0h0A12.241,12.241,0,0,1,24.463,12.516Z"/><ellipse class="b" cx="5.668" cy="5.8" rx="5.668" ry="5.8" transform="translate(6.862 6.716)"/><path class="b" d="M19.392,12.643h0a.294.294,0,0,0-.3-.305v.611h0a.3.3,0,0,0,.3-.305Zm-.6,1.526h0v-.305h-.3a.3.3,0,0,1-.3.305h0v.305h0c.3.305.3.305.6-.305ZM19.69,10.2h0c-.3.305-.3.305-.3.611v.611h0a2.352,2.352,0,0,0,.3-1.221ZM17.9,15.7h0V15.39h0l-.3.305h0L17.3,16h0c.3.305.3,0,.6-.305Zm1.492-5.19V10.2h-.6v1.221h0c.6-.305.6-.611.6-.916ZM18.5,14.169h0v-.305h-.3a1.073,1.073,0,0,0-.3.611v.611h0c.3-.305.3-.611.6-.916Zm.3-1.526v-.305c.3,0,.3,0,0,.305a.294.294,0,0,0-.3-.305h0v.305h0v.305h0c.3,0,.3,0,.3-.305ZM17.6,15.39h0v-.305h0a1.073,1.073,0,0,0-.3.611v.611h0c-.3-.305,0-.611.3-.916Zm.9-3.053h0v-.305h-.3a.956.956,0,0,1-.3.611v.611h0c.3-.305.6-.611.6-.916Zm.3-2.137h0L18.5,9.9v1.221h0v-.305c.3-.305.3-.305.3-.611Zm-.9,3.663h0c0-.305-.3-.305,0,0-.3-.305-.3,0-.3,0a.294.294,0,0,1-.3.305h.3l.3-.305Zm-.6,1.221h0V14.78h0a.3.3,0,0,1-.3.305.294.294,0,0,1-.3.305h.3l.3-.305c-.3.305-.3,0,0,0Zm.9-4.579c.3-.305,0-.305,0,0l-.3-.305h0v.305h0v.611h.3v-.611Zm-.3,1.832h0l-.3-.305v.611h.3v-.305Zm-.3,1.221h0a.294.294,0,0,0-.3-.305h0v.305h0v.305h.3c-.3.305-.3.305,0-.305Zm-.9,1.221h0v-.305h0a.3.3,0,0,1-.3.305h0a.3.3,0,0,1-.3.305h.3c0,.305,0,0,.3-.305-.3.305,0,.305,0,0Zm.9-2.747h0a.294.294,0,0,0-.3-.305h0v.305h0v.305h.3v-.305Zm.3-1.526h0l-.3-.305v.611h0c0,.305,0,.305.3-.305Zm-.895,3.053h0a.294.294,0,0,0-.3-.305.3.3,0,0,1-.3.305v.305h0c.3,0,.3,0,.6-.305Zm-.9,1.221c.3-.305,0-.305,0,0v-.305l-.6.611h0c.3,0,.3,0,.6-.305Zm-.6,3.358h0c.3-.305,0-.611,0-.305a.294.294,0,0,0-.3.305l-.3.305h0c.3,0,.6,0,.6-.305Zm-1.492.916h0c.3-.305,0-.305,0-.305h0a.294.294,0,0,0-.3.305h-.3c0,.305.3.305.6,0ZM17.3,16.611h0c-.3,0-.3,0-.6.305h0l-.3.305h0c.6-.305.6-.611.9-.611ZM12.53,19.664h0l.3-.305h0c-.3,0-.3,0-.3.305l-.3-.305h-.3c0,.611.3.611.6.305Zm4.177-3.053h0c.3-.305,0-.305,0-.305h0l-.3.305h0v.305h0l.3-.305Zm-2.685,2.137h0l.3-.305v-.305a1.035,1.035,0,0,1-.6.305h-.3c-.3,0-.3,0,0,.305h0c0,.305.3.305.6,0Zm1.193-.916h0v-.305h0l-.3.305h0l-.3.305h0a.914.914,0,0,0,.6-.305ZM12.53,19.359h0l.3-.305a.914.914,0,0,0-.6.305h.3Zm2.387-1.832h0c.3-.305.3-.305,0-.305h0a1.035,1.035,0,0,1-.6.305h-.3v.305h0a1.08,1.08,0,0,0,.9-.305ZM16.408,16h0V15.7h0a.3.3,0,0,1-.3.305.294.294,0,0,1-.3.305h.3l.3-.305Zm-2.685,2.137h0v-.305h0a.294.294,0,0,0-.3.305.3.3,0,0,0-.3.305h.3l.3-.305Zm-1.492.611h0v-.305h0a.294.294,0,0,0-.3.305h.3ZM16.11,15.7h0V15.39h0l-.3.305h0l-.3.305h.3l.3-.305c-.3.305,0,.305,0,0Zm-1.492,1.221h0v-.305h0a.294.294,0,0,0-.3.305.3.3,0,0,0-.3.305h.3c.3,0,.3,0,.3-.305Zm-1.193.916h0v-.305h-.3a.294.294,0,0,0,.3.305Zm-1.492.611h0v-.305h-.3l.3.305Zm2.387-1.832h0v-.305h0a.294.294,0,0,0-.3.305h0a.294.294,0,0,0-.3.305h0c.3,0,.3,0,.6-.305Zm1.193-1.221h0v-.305a.294.294,0,0,0-.3.305.3.3,0,0,1-.3.305h0c.3.305.3.305.6-.305Zm-2.387,2.137h0v-.305h-.6c0,.305,0,.305.6.305Zm-1.193.305h0v-.305c-.3,0-.6,0-.6.305h.6ZM9.248,20.274h0a.3.3,0,0,0,.3-.305h-.6c-.3,0,0,.305.3.305Zm-1.79-.305h.3v-.305h-.9l.6.305Zm4.177,0h0c-.3-.305-.3-.305-.6-.305h-.6a2.213,2.213,0,0,0,1.193.305Zm-5.668-.916h.3v-.305h0a.294.294,0,0,1-.3-.305h-.3c-.3.305-.3.611.3.611Zm5.37.611h0c.3,0,.3-.305,0,0l.3-.305H10.442c0,.305.3.305.895.305Zm-3.878-.305h.3v-.305a.914.914,0,0,1-.6-.305h-.6c.3.305.6.611.9.611Zm1.492.305h0c.3,0,.3-.305,0,0l.3-.305h-.9c.3.305.3.305.6.305Zm-2.983-.916h.3v-.305a1.035,1.035,0,0,0-.6-.305h-.6c.3.305.6.611.9.611Zm3.282.611h0c.3,0,.3,0,.3-.305v-.305H8.353c.3.305.6.305.9.611Zm2.088-.305h0v-.305h-.6c.3.305.3.305.6.305Zm-3.58,0h0l.3-.305h-.6v.305h.3Zm-1.492-.611h0c.3-.305,0-.305,0-.305a.3.3,0,0,1-.3-.305h0v.305h0l.3.305Zm4.773.305c.3,0,.3-.305,0,0l.3-.305h-.6v.305h.3Zm-1.79,0h0l.3-.305h-.3c-.3.305,0,.305,0,.305Zm-1.492-.305h0a.3.3,0,0,0,.3-.305h-.9v.305h.6Zm-1.193-.611h0a.3.3,0,0,0,.3-.305h-.6v.305h0c-.3-.305-.3-.305.3,0Zm2.685.305h0l.3-.305h-.6v.305h.3Zm1.492,0h0l.3-.305h-.6c-.3.305,0,.305.3.305Zm-2.983-.305h0l.3-.305a.294.294,0,0,1-.3-.305h-.3c-.3.305,0,.305.3.611Zm-1.193-.611h.3a1.035,1.035,0,0,1-.6-.305h0l.3.305Zm-3.58,0h0c.3.305.6,0,.3,0l-.3-.305-.3-.305h0a1.073,1.073,0,0,0,.3.611ZM1.79,16h.3l-.3-.305h0l-.3-.305h0s.3,0,.3.611Zm3.282,2.747h0c0-.305,0-.305-.3-.611h0l-.3-.305h0c0,.611.3.611.6.916ZM1.193,14.474h0c.3.305.3,0,.3,0h0a.3.3,0,0,0-.3-.305h0v-.305h0c-.3,0-.3,0,0,.611Zm3.58,3.663c.3,0,.3.305,0,0h.3v-.305a1.035,1.035,0,0,0-.6-.305h-.6a3.692,3.692,0,0,1,.9.611ZM2.387,15.7h0l.3.305h0a1.073,1.073,0,0,1-.3-.611v-.305h-.3c-.3,0,0,.305.3.611Zm.9,1.221h.3l-.3-.305h0l-.3-.305h0a.956.956,0,0,0,.3.611Zm-1.79-2.747h0l.3.305h.3a1.073,1.073,0,0,1-.3-.611v-.305c0-.305,0-.305-.3,0h0c-.3,0-.3.305,0,.611ZM3.58,16.611h0c.3.305.3,0,.3,0h0l-.3-.305h-.3c0-.305,0,0,.3.305Zm1.79,1.221h.3a.294.294,0,0,1-.3-.305.3.3,0,0,1-.3-.305h0v.305h0l.3.305c-.3-.305-.3,0,0,0ZM2.685,15.39h.3a.3.3,0,0,0-.3-.305.294.294,0,0,0-.3-.305h0v.305h0v.305c.3-.305.3-.305.3,0Zm-.6-1.526h.3a.3.3,0,0,0-.3-.305.294.294,0,0,0-.3-.305h0v.305c0,.305,0,.305.3.305ZM5.37,17.222h0c.3-.305,0-.305,0-.611h0a.294.294,0,0,1-.3-.305h0v.305h0c0,.305,0,.305.3.611Zm-1.193-.916h.3a.294.294,0,0,1-.3-.305.3.3,0,0,1-.3-.305h0V16h0l.3.305ZM2.983,14.78h.3a.3.3,0,0,0-.3-.305h0a.3.3,0,0,0-.3-.305h0c0,.305,0,.305.3.611Zm-.6-1.221h.3v-.305h0v-.305h0v.305l-.3.305ZM4.475,15.7h.3l-.3-.305h0l-.3-.305h0v.305h0c-.3,0,0,0,.3.305Zm1.193,1.221h.3a.3.3,0,0,0-.3-.305.294.294,0,0,1-.3-.305h0a.956.956,0,0,0,.3.611ZM3.58,14.474h.3a.3.3,0,0,0-.3-.305.3.3,0,0,0-.3-.305h0c0,.305,0,.305.3.611Zm-.9-1.221h.3a1.073,1.073,0,0,0-.3-.611h0v.611ZM0,11.116H0a.294.294,0,0,0,.3.305v-.611h0c-.3-.305-.3,0-.3.305ZM0,9.285V9.59H0c.3,0,.3,0,0-.305l.3.305V8.674h0c-.3,0-.3,0-.3.611Zm.6,4.274h0c.3,0,.3-.305,0,0h0c.3-.305,0-.305,0-.611v-.611h0v1.221ZM.3,7.453v.305H.6V6.842h0a.956.956,0,0,1-.3.611Zm.6,5.495h0l.3.305a.956.956,0,0,0-.3-.611v-.305c0-.305,0-.305-.3,0h0c.3,0,.3.305.3.611ZM.6,9.285V9.59h.6V8.369h0c-.6.305-.6.611-.6.916Zm0,1.526v0c0,.305.3.305,0,0l.3.305V10.2h0c-.3.305-.3.305-.3.611ZM.9,7.758h0v.305h.3a.956.956,0,0,1,.3-.611V6.842h0c-.3.305-.6.611-.6.916Zm0,3.053h0l.3.305V10.2h0c-.3,0-.3.305-.3.611Zm.6,2.137h.3a.3.3,0,0,0-.3-.305v-.305h0v.611ZM.9,9.285h0l.3.305V8.369h0v.305l-.3.611Zm.3-1.526h0l.3.305V7.453h-.3v.305Zm.6,4.884c0,.305.3.305,0,0h.3v-.305h0v-.305h0v.305a.3.3,0,0,0-.3.305Zm-.3-1.832h.3V10.2h0v.305l-.3.305Zm0-1.526h0l.3.305h0V9.285h0V8.674h-.3v.611Zm.3-1.221h0a.3.3,0,0,1,.3.305h0V8.064h0V7.453h-.3v.611Zm.3,2.747h0l.3.305h0v-.305h0v-.305h0v.305c-.3-.305-.3,0-.3,0Zm.3,1.526h.3c0,.305,0,0-.3,0a.956.956,0,0,0,.3-.611h0c-.6,0-.6.305-.3.611Zm-.3-3.053h0c.3.305.3,0,.3,0V8.979h0c-.3-.305-.3-.305-.3.305Zm.3-1.221h0l.3.305c0-.305,0-.611.3-.611h0c-.3-.305-.3-.305-.6.305ZM1.79,4.4h0v.305a.3.3,0,0,1,.3-.305l.3-.305h0a1.035,1.035,0,0,0-.6.305ZM2.983,3.179h0v.305h0l.3-.305h0l.3-.305h0c-.3-.305-.3,0-.6.305ZM.6,6.537h0a.3.3,0,0,0,.3-.305h0V5.927h0a.956.956,0,0,1-.3.611Zm3.58-4.579h0c-.3.305,0,.305,0,0v.305h0l.3-.305h0l.3-.305h0a.914.914,0,0,0-.6.305ZM1.193,6.537h0v.305h.3a1.073,1.073,0,0,0,.3-.611V5.621h0c-.3.305-.6.611-.6.916ZM3.282,3.484h0c-.3.305,0,.305,0,.305h0l.3-.305h0V3.179h0l-.3.305Zm-.9,1.221h0v.305h0l.3-.305h0l.3-.305h0c-.3-.305-.6,0-.6.305ZM4.475,2.263h0c-.3.305-.3.305,0,.305h0a1.035,1.035,0,0,1,.6-.305h.3V1.958h0c-.3,0-.6.305-.9.305ZM2.685,5.011h0v.305h0a1.073,1.073,0,0,0,.3-.611V4.095h0c0,.305-.3.611-.3.916ZM1.492,6.842h0c.3,0,.3.305,0,0h0c.3.305.3,0,.3-.305l.3-.305h-.3l-.3.305c.3,0,.3,0,0,.305ZM3.58,3.79h0v.305h0a.3.3,0,0,1,.3-.305l.3-.305h-.3l-.3.305Zm1.193-.916h0v.305h0a.294.294,0,0,0,.3-.305.3.3,0,0,0,.3-.305h-.6c.3,0,0,.305,0,.305ZM2.088,6.842h0a.294.294,0,0,0,.3.305h0V6.842h0V6.232h-.3v.611Zm.895-1.526h0v.305h0a.3.3,0,0,1,.3-.305.294.294,0,0,1,.3-.305h-.3l-.3.305Zm.9-1.221h0V4.4h0l.3-.305h0l.3-.305h-.3c.3,0,.3,0-.3.305.3-.305.3,0,0,0Zm1.193-.916h0v.305h0a.294.294,0,0,0,.3-.305h0a.294.294,0,0,0,.3-.305h0l-.6.305ZM3.58,5.621h0v.305h0a.3.3,0,0,1,.3-.305h0a.3.3,0,0,1,.3-.305h-.3c0-.305,0-.305-.3.305Zm-.9,1.221h0a.294.294,0,0,0,.3.305.3.3,0,0,1,.3-.305V6.537h0c-.3,0-.3,0-.6.305ZM4.475,4.4h0v.305a.294.294,0,0,0,.3-.305l.3-.305h0a.914.914,0,0,0-.6.305Zm1.193-.916h0V3.79c.3-.305.3-.305.6-.305h0c-.3-.305-.3-.305-.6,0ZM7.16.432h0a.3.3,0,0,0-.3.305c.3,0,.3,0,.3-.305a.914.914,0,0,0,.6.305h0c0-.611-.3-.305-.6-.305ZM8.95.126h0l-.3.305h.9c0-.305-.3-.611-.6-.305ZM5.072,1.348h.9c-.3-.305-.6,0-.9,0ZM10.74.126h0l-.3.305h.895c0-.305-.3-.305-.6-.305ZM5.37,1.653h0l-.3.305h0a1.035,1.035,0,0,1,.6-.305h.3c.3,0,.3,0,0-.305h0a.914.914,0,0,0-.6.305ZM8.95.432h0a.3.3,0,0,0-.3.305v.305H9.845c-.3-.611-.6-.611-.9-.611ZM7.458.737h0l-.3.305h0c.3,0,.3,0,.3-.305l.3.305h.3c0-.305-.3-.305-.6-.305ZM10.74.432h-.3v.611h1.193c-.3-.305-.6-.611-.9-.611Zm-3.282.916h0l-.3.305a.914.914,0,0,0,.6-.305h.3c0-.305-.3-.305-.6,0Zm-1.79.611h0v.305h0a.294.294,0,0,0,.3-.305.3.3,0,0,0,.3-.305h-.3a.294.294,0,0,1-.3.305ZM8.95,1.042h0v.305h.6c-.3-.305-.3-.305-.6-.305Zm1.492,0h0l-.3.305h.6c0-.305,0-.305-.3-.305ZM5.967,2.569h0v.305h0a.294.294,0,0,0,.3-.305h0c0-.305-.3,0-.3,0Zm1.79-.916h0v.305h.3l-.3-.305Zm1.492-.305c-.3,0-.3.305,0,0l-.3.305h.3V1.348Zm1.193.305h0l-.3.305h.9V1.653h-.6Zm-2.685.611h0v.305h.3c0-.305,0-.305-.3-.305Zm-1.492.611h0v.305a.294.294,0,0,0,.3-.305h.3c0-.305,0-.305-.6,0Zm2.983-.916h0c0,.305,0,.305-.3.305h.6c.3-.305.3-.305-.3-.305Zm1.492,0c-.3,0-.3.305,0,0h0c0,.305.3.305.6.305h0c-.3,0-.3,0-.6-.305Zm3.282-.916h0c-.3,0-.6,0-.3.305a.294.294,0,0,1,.3.305.3.3,0,0,1,.3.305h0c0-.916-.3-.916-.3-.916Zm1.492.916h-.3v.305h0l.3.305h0l.3.305h0c0-.611,0-.916-.3-.916ZM11.635.126h0a.294.294,0,0,0,.3.305h.6c-.3,0-.6-.305-.9-.305Zm5.072,2.747h-.3l.3.305h0l.3.305h0a.956.956,0,0,0-.3-.611ZM11.933.737c-.3,0-.3-.305,0,0h-.3v.305h1.193a1.08,1.08,0,0,0-.895-.305Zm3.282,1.526h-.3a1.035,1.035,0,0,0,.6.305h.6c-.3,0-.6-.305-.9-.305Zm-1.492-.916h-.3a.294.294,0,0,1,.3.305h.3c.3,0,0,0-.3-.305Zm2.685,1.832h0c-.3-.305-.3,0-.3,0h0l.3.305h.3c0,.305,0,0-.3-.305ZM13.723,1.958h-.3v.305a1.035,1.035,0,0,0,.6.305h.6c-.6-.305-.6-.611-.9-.611Zm-2.088-.916h0l-.3.305h.9V1.042h-.6Zm3.282,1.526h-.3a.294.294,0,0,1,.3.305.3.3,0,0,1,.3.305h0V2.874h0l-.3-.305Zm.9.916h-.3a.294.294,0,0,1,.3.305l.3.305h0V3.79h0l-.3-.305ZM11.635,1.653h0l-.3.305h.9V1.653h-.6Zm1.79.611h0c-.3.305,0,.305,0,.305a.3.3,0,0,1,.3.305h0V2.569h0l-.3-.305Zm1.193.916h-.3a.294.294,0,0,1,.3.305h0a.294.294,0,0,1,.3.305h0V3.484h0l-.3-.305Zm1.193.916h-.3l.3.305h0l.3.305h0V4.4h0l-.3-.305ZM13.127,2.874h0a.3.3,0,0,0-.3.305h.6V2.874h0c.3.305,0,0-.3,0Zm-1.492-.611h0l-.3.305a.294.294,0,0,1,.3.305h.3c.3-.611.3-.611-.3-.611ZM14.32,3.484h-.3a.3.3,0,0,0,.3.305.294.294,0,0,1,.3.305h0c.3,0,.3,0-.3-.611.3.305,0,.305,0,0Zm1.193,1.221h-.3l.6.611h0c0-.305,0-.305-.3-.611Zm3.282.916h0c-.3-.305-.6-.305-.3,0-.3,0,0,.305.3,0a.429.429,0,0,0,0,.611h0V5.621Zm.6,1.832V7.148s-.3,0,0,.305l-.3-.305h0c0,.305,0,.305.3.305l-.3.305v.305h0c.3,0,.3-.305.3-.611ZM17.3,3.79h0V4.4h0l.3.305h0c0-.611,0-.916-.3-.916Zm2.387,5.19v0l-.3-.305h0V9.59h0c.3,0,.3,0,.3-.611ZM17.3,4.095h-.3a1.073,1.073,0,0,1,.3.611v.305h.3a1.138,1.138,0,0,0-.3-.916Zm1.79,3.358h0l-.3-.305a.956.956,0,0,0,.3.611v.305h0V7.453ZM18.2,5.927h0c-.3-.305-.3,0-.3,0h0s.3.305.3,0l-.3.305v.305h0c.6,0,.6,0,.3-.611Zm.895,3.358h0l-.3-.305V10.2h0c.6-.305.6-.611.3-.916ZM17.9,6.232h0l-.3-.305h-.3a1.073,1.073,0,0,1,.3.611v.305s0,.305.3,0h0c.3,0,.3-.305,0-.611ZM16.707,4.4h-.3l.3.305a.956.956,0,0,1,.3.611h0V5.011h0V4.706a.3.3,0,0,0-.3-.305ZM18.5,7.453h-.3a.3.3,0,0,0,.3.305v.611h0V7.453Zm.3,1.526h-.3V9.9h0V9.59c.3-.305.3-.305.3-.611ZM16.408,5.011h-.3a.3.3,0,0,0,.3.305h0a.3.3,0,0,0,.3.305h0V5.316h0l-.3-.305Zm.9,1.526h-.3a.3.3,0,0,0,.3.305.294.294,0,0,0,.3.305h0V6.842c0-.305,0-.305-.3-.305Zm.6,1.221h-.3v.305h0v.305h0V8.064c.3,0,.3,0,.3-.305Zm.3,1.526h0l-.3-.305h0v.305h0V9.9h.3V9.285ZM17.005,6.842h-.3v.305h0v.305h0V7.148l.3-.305Zm-.9-1.526h-.3a.3.3,0,0,0,.3.305.3.3,0,0,0,.3.305h0a.956.956,0,0,0-.3-.611ZM17.6,8.064h0c-.3,0-.3,0-.3-.305v.611h0c.3.305.3.305.3-.305Zm0,1.526h0l-.3-.305V10.2h0c.3-.305.3-.305.3-.611Z" transform="translate(2.387 2.01)"/></g><path class="a" d="M29.535,0C19.69,6.105,9.845,12.516,0,18.622L31.623,35.106C31.325,23.2,31.922,10.379,29.535,0ZM28.342,2.442c2.387,11.906,1.492,20.453,1.492,29.917L2.983,18.316Z"/><g transform="translate(676.026)"><g transform="translate(0 7.632)"><g transform="translate(0 12.516)"><path class="a" d="M0,0C.3.305,10.143,8.853,10.143,8.853h4.773L5.668,0Z" transform="translate(0 0)"/><path class="a" d="M0,0C.3.305,9.845,8.853,9.845,8.853h4.773L5.37,0Z" transform="translate(11.635 0)"/></g><path class="a" d="M0,8.853C.3,8.548,10.143,0,10.143,0h4.773L5.668,8.853Z" transform="translate(0 0.305)"/><path class="a" d="M0,8.853C.3,8.548,9.547,0,9.547,0H14.32L4.773,9.158Z" transform="translate(11.933)"/><g transform="translate(55.49)"><g transform="translate(0 12.516)"><path class="a" d="M0,0C.3.305,10.143,8.853,10.143,8.853h4.773L5.668,0Z" transform="translate(0 0)"/><path class="a" d="M0,0C.3.305,9.845,8.853,9.845,8.853h4.773L5.37,0Z" transform="translate(11.635 0)"/></g><path class="a" d="M0,8.853C.3,8.548,10.143,0,10.143,0h4.773L5.668,8.853Z" transform="translate(0 0.305)"/><path class="a" d="M0,8.853C.3,8.548,9.547,0,9.547,0H14.32L5.072,8.853Z" transform="translate(11.933)"/></g><g transform="translate(110.98)"><g transform="translate(0 12.516)"><path class="a" d="M0,0C.3.305,10.143,8.853,10.143,8.853h4.773L5.668,0Z" transform="translate(0 0)"/><path class="a" d="M0,0C.3.305,9.845,8.853,9.845,8.853h4.773L5.37,0Z" transform="translate(11.635 0)"/></g><path class="a" d="M0,8.853C.3,8.548,10.143,0,10.143,0h4.773L5.668,8.853Z" transform="translate(0 0.305)"/><path class="a" d="M0,8.853C.3,8.548,9.547,0,9.547,0H14.32L5.072,8.853Z" transform="translate(11.933)"/></g><g transform="translate(170.349)"><g transform="translate(0 12.516)"><path class="a" d="M0,0C.3.305,10.143,8.853,10.143,8.853h4.773L5.668,0Z" transform="translate(0 0)"/><path class="a" d="M0,0C.3.305,9.845,8.853,9.845,8.853h4.773L5.37,0Z" transform="translate(11.933 0)"/></g><path class="a" d="M0,8.853C.3,8.548,10.143,0,10.143,0h4.773L5.668,8.853Z" transform="translate(0 0.305)"/><path class="a" d="M0,8.853C.3,8.548,9.547,0,9.547,0H14.32L5.072,8.853Z" transform="translate(11.933)"/></g></g><g transform="translate(232.999 6.411)"><path class="a" d="M0,12.516a12.235,12.235,0,1,0,24.463,0A12.241,12.241,0,0,0,12.232,0h0A12.43,12.43,0,0,0,0,12.516Z"/><path class="b" d="M0,12.643H0a.294.294,0,0,1,.3-.305v.611h0a.3.3,0,0,0-.3-.305Zm.895,1.526h0v-.305h.3a.3.3,0,0,0,.3.305h0v.305h0c-.3.305-.6.305-.6-.305ZM0,10.2H0c.3.305.3.305.3.611v.611h0A2.352,2.352,0,0,1,0,10.2ZM1.79,15.7c-.3,0-.3-.305,0,0h0V15.39h0l.3.305h0l.3.305h0c-.3.305-.6,0-.6-.305ZM.3,10.506V10.2h.6v1.221h0c-.6-.305-.6-.611-.6-.916Zm.895,3.663h0v-.305h.3a1.073,1.073,0,0,1,.3.611v.611h0c-.3-.305-.6-.611-.6-.916ZM.6,12.643v0a.294.294,0,0,1,.3-.305h0v.305h0v.305h0l-.3-.305ZM2.088,15.39h0v-.305h0a1.073,1.073,0,0,1,.3.611v.611h0c0-.305-.3-.611-.3-.916Zm-.9-3.053h0v-.305h.3a.956.956,0,0,0,.3.611v.611h0c-.6-.305-.6-.611-.6-.916ZM.6,10.2h0l.3-.305v1.221h0v-.305c0-.305-.3-.305-.3-.611Zm.895,3.663h0c.3-.305.3,0,.3,0a.294.294,0,0,0,.3.305h-.3l-.3-.305Zm.9,1.221h0V14.78h0a.3.3,0,0,0,.3.305.294.294,0,0,0,.3.305h-.3l-.3-.305ZM1.193,10.506h0l.3-.305h0v.305h0v.611h-.3v-.611Zm.3,1.832h0l.3-.305v.611h-.3v-.305Zm.6,1.221h0a.294.294,0,0,1,.3-.305l-.3.305c.3-.305.3,0,.3,0h0v.305h-.3c.3.305.3.305,0-.305Zm.895,1.221h0v-.305h0a.3.3,0,0,0,.3.305h0a.3.3,0,0,0,.3.305h-.3c0,.305,0,0-.3-.305Zm-.895-2.747h0a.294.294,0,0,1,.3-.305h0v.305h0v.305h-.3v-.305Zm-.3-1.526h0l.3-.305v.611h0c-.3.305-.3.305-.3-.305Zm.895,3.053h0a.294.294,0,0,1,.3-.305.3.3,0,0,0,.3.305v.305h0c-.3,0-.3,0-.6-.305Zm.6,1.221h0v-.305l.6.611h0l-.6-.305Zm.6,3.358h0c-.3-.305,0-.611,0-.305a.294.294,0,0,1,.3.305l.3.305h0a.914.914,0,0,1-.6-.305Zm1.492.916h0c-.3-.305,0-.305,0-.305h0a.294.294,0,0,1,.3.305h.3c0,.305,0,.305-.6,0ZM2.387,16.611h0c.3,0,.3,0,.6.305h0l.3.305h0a3.692,3.692,0,0,1-.9-.611ZM7.16,19.664h0l-.3-.305h0c.3,0,.3,0,.3.305l.3-.305h.3c0,.611-.3.611-.6.305ZM2.685,16.611h0c-.3-.305,0-.305,0-.305h0l.3.305h0v.305h0c.3,0,0-.305-.3-.305Zm2.983,2.137h0l-.3-.305v-.305a1.035,1.035,0,0,0,.6.305h.3c.3,0,.3,0,0,.305h0c0,.305-.3.305-.6,0Zm-1.193-.916h0v-.305h0l.3.305h0l.3.305h0c-.3,0-.3,0-.6-.305ZM7.16,19.359h0l-.3-.305a.914.914,0,0,1,.6.305h-.3ZM4.475,17.527h0c-.3-.305-.3-.305,0-.305h0a1.035,1.035,0,0,0,.6.305h.3v.305h0a1.08,1.08,0,0,1-.9-.305ZM2.983,16h0V15.7h0a.3.3,0,0,0,.3.305.294.294,0,0,0,.3.305h-.3L2.983,16c.3.305.3,0,0,0Zm2.983,2.137h0v-.305h0a.294.294,0,0,1,.3.305.3.3,0,0,1,.3.305h-.3a.3.3,0,0,1-.3-.305Zm1.193.611h0v-.305h0a.294.294,0,0,1,.3.305h-.3ZM3.58,15.7h0V15.39h0l.3.305h0l.3.305h-.3c0,.305,0,0-.3-.305Zm1.193,1.221h0v-.305h0a.294.294,0,0,1,.3.305.3.3,0,0,1,.3.305h-.3l-.3-.305Zm1.492.916h0v-.305h.3l-.3.305Zm1.193.611h0v-.305h.3c0,.305,0,.305-.3.305ZM5.37,16.611h0v-.305h0a.294.294,0,0,1,.3.305h0a.294.294,0,0,1,.3.305h0c-.3,0-.3,0-.6-.305ZM3.878,15.39h0v-.305a.294.294,0,0,1,.3.305.3.3,0,0,0,.3.305h0c0,.305,0,.305-.6-.305Zm2.685,2.137h0v-.305h.6c0,.305-.3.305-.6.305Zm1.193.305h0v-.305c.3,0,.6,0,.6.305h-.6Zm2.685,2.442h0a.3.3,0,0,1-.3-.305h.6c.3,0,0,.305-.3.305Zm1.79-.305h-.3v-.305h.9a.914.914,0,0,0-.6.305Zm-4.177,0h0c.3-.305.3-.305.6-.305h.6a2.214,2.214,0,0,1-1.193.305Zm5.668-.916h-.3v-.305h0a.294.294,0,0,0,.3-.305h.3c.3.305,0,.611-.3.611Zm-5.37.611h0c-.3,0-.3-.305,0,0l-.3-.305H9.248a1.081,1.081,0,0,1-.9.305Zm3.878-.305h-.3v-.305a.914.914,0,0,0,.6-.305h.6c-.3.305-.6.611-.9.611Zm-1.79.305h0c-.3,0-.3-.305,0,0l-.3-.305h.9c0,.305,0,.305-.6.305Zm2.983-.916h-.3v-.305a1.035,1.035,0,0,1,.6-.305h.6c-.3.305-.6.611-.9.611Zm-2.983.611h0c-.3,0-.3,0-.3-.305v-.305h1.193c-.3.305-.6.305-.9.611Zm-2.088-.305h0v-.305h.6c-.3.305-.3.305-.6.305Zm3.58,0h0l-.3-.305h.6v.305h-.3c.3-.305,0-.305,0,0Zm1.193-.611h0c-.3-.305,0-.305,0-.305a.3.3,0,0,0,.3-.305h0v.305h0l-.3.305Zm-4.475.305c-.3,0-.3-.305,0,0l-.3-.305h.6v.305h-.3Zm1.79,0h0l-.3-.305h.3v.305Zm1.492-.305h0a.3.3,0,0,1-.3-.305h.9v.305h-.6Zm1.193-.611h0a.3.3,0,0,1-.3-.305h.6v.305h0c.3-.305,0-.305-.3,0Zm-2.685.305h0l-.3-.305h.6v.305h-.3Zm-1.79,0h0l-.3-.305h.6c.3.305.3.305-.3.305Zm3.282-.305h0l-.3-.305a.294.294,0,0,0,.3-.305h.3c0,.305,0,.305-.3.611Zm1.193-.611h-.3a1.035,1.035,0,0,0,.6-.305h0l-.3.305Zm3.282,0h0c-.3.305-.6,0-.3,0l.3-.305.3-.305h0c0,.305,0,.611-.3.611ZM17.6,16h-.3l.3-.305h0l.3-.305h0L17.6,16Zm-2.983,2.747h0c0-.305,0-.305.3-.611h0l.3-.305h0c0,.611-.3.611-.6.916ZM18.5,14.474h0c-.3.305-.3,0,0,0-.3.305-.3,0-.3,0h0a.3.3,0,0,1,.3-.305h0v-.305h0c.3,0,.3,0,0,.611Zm-3.878,3.663h-.3v-.305a1.035,1.035,0,0,1,.6-.305h.6c-.3.305-.6.611-.9.611ZM17.3,15.7h0l-.3.305h0a1.073,1.073,0,0,0,.3-.611v-.305h.3a.957.957,0,0,1-.3.611ZM16.11,16.916h-.3l.3-.305h0l.3-.305h0c.3,0,0,.305-.3.611ZM18.2,14.169h0l-.3.305h-.3a1.073,1.073,0,0,0,.3-.611v-.305c0-.305,0-.305.3,0h0v.611Zm-2.387,2.442h0c-.3.305-.3,0-.3,0h0l.3-.305h.3l-.3.305ZM14.32,17.832h-.3a.294.294,0,0,0,.3-.305.3.3,0,0,0,.3-.305h0v.305h0l-.3.305Zm2.387-2.442h-.3a.3.3,0,0,1,.3-.305.294.294,0,0,1,.3-.305h0v.305h0v.305c0-.305,0-.305-.3,0Zm.895-1.526h-.3a.3.3,0,0,1,.3-.305.294.294,0,0,1,.3-.305h0v.305l-.3.305Zm-3.58,3.358h0c-.3-.305,0-.305,0-.611h0a.294.294,0,0,0,.3-.305h0v.305h0c.3.305.3.305-.3.611Zm1.492-.916h-.3a.294.294,0,0,0,.3-.305.3.3,0,0,0,.3-.305h0V16h0l-.3.305c.3-.305,0-.305,0,0Zm.895-1.526h-.3a.3.3,0,0,1,.3-.305h0a.3.3,0,0,1,.3-.305h0c0,.305,0,.305-.3.611Zm.9-1.221h-.3v-.305h0v-.305h0v.305l.3.305ZM15.215,15.7h-.3l.3-.305h0l.3-.305h0v.305h0l-.3.305Zm-1.193,1.221h-.3a.3.3,0,0,1,.3-.305.294.294,0,0,0,.3-.305h0a.956.956,0,0,1-.3.611Zm2.088-2.442h-.3a.3.3,0,0,1,.3-.305.3.3,0,0,1,.3-.305h0c0,.305,0,.305-.3.611Zm.6-1.221h-.3a1.073,1.073,0,0,1,.3-.611h0c.3,0,.3.305,0,.611Zm2.685-2.137h0a.294.294,0,0,1-.3.305v-.611h0c.6-.305.6,0,.3.305Zm.3-1.832V9.59h0c-.3,0-.3,0,0-.305l-.3.305V8.674h0l.3.611ZM18.8,13.558h0c-.3-.305,0-.305,0-.611v-.611h0c.3.611.3.916,0,1.221Zm.3-6.105v.305h-.3V6.842h0c.3,0,.3.305.3.611Zm-.3,5.495h0l-.3.305a.956.956,0,0,1,.3-.611v-.305c0-.305,0-.305.3,0h0c-.3,0-.3.305-.3.611Zm.3-3.663V9.59h-.6V8.369h0c.6.305.6.611.6.916Zm0,1.526v0h0l-.3.305V10.2h0c.3.305.3.305.3.611Zm-.3-3.053h0v.305h-.3a.956.956,0,0,0-.3-.611V6.842h0c.3.305.6.611.6.916Zm-.3,3.053h0l-.3.305V10.2h0c.3,0,.6.305.3.611Zm-.3,2.137h-.3a.3.3,0,0,1,.3-.305v-.305h0v.611Zm.3-3.663h0l-.3.305V8.369h0v.305l.3.611Zm-.3-1.526h0l-.3.305V7.453h.3v.305Zm-.6,4.884h-.3v-.305h0v-.305h0v.305c.6,0,.6.305.3.305Zm.6-1.832h-.3V10.2h0v.305l.3.305Zm0-1.526h0l-.3.305h0V9.285h0V8.674h.3v.611Zm-.3-1.221h0a.294.294,0,0,1-.3.305h0V8.064h0V7.453h.3v.305c-.3,0-.3,0,0,.305Zm-.3,2.747h0l-.3.305h0v-.305h0v-.305h0v.305c.3-.305.3,0,.3,0Zm-.3,1.526h-.3c-.3.305,0,0,.3,0a.956.956,0,0,1-.3-.611h0c.3,0,.3.305.3.611Zm.3-3.053h0c-.3.305-.3,0-.3,0V8.979h0c0-.305,0-.305.3.305Zm-.3-1.221h0l-.3.305c0-.305,0-.611-.3-.611h0c.3-.305.3-.305.6.305ZM17.9,4.4h0v.305a.3.3,0,0,0-.3-.305l-.3-.305h0c.3,0,.3.305.6.305ZM16.707,3.179h0v.305h0l-.3-.305h0l-.3-.305h0c0-.305.3,0,.6.305ZM18.8,6.537h0a.3.3,0,0,1-.3-.305h0V5.927h0c.3,0,.3.305.3.611Zm-3.58-4.579c.3,0,.3.305,0,0h0v.305h0l-.3-.305h0l-.3-.305h0c.3,0,.3,0,.6.305ZM18.5,6.537h0v.305h-.3a1.073,1.073,0,0,1-.3-.611V5.621h0c.3.305.3.611.6.916ZM16.408,3.484h0c.3.305,0,.305,0,.305h0l-.3-.305h0V3.179h0l.3.305Zm.9,1.221h0c.3.305,0,.305,0,0v.305h0l-.3-.305h0l-.3-.305h0c.3-.305.3,0,.6.305ZM15.215,2.263h0c.3.305.3.305,0,.305h0a1.035,1.035,0,0,0-.6-.305h-.3V1.958h0c.3,0,.6.305.9.305Zm1.79,2.747h0v.305h0a1.073,1.073,0,0,1-.3-.611V4.095h0a1.138,1.138,0,0,0,.3.916ZM17.9,6.842h0c0,.305-.3.305,0,0-.3.305-.3,0-.3-.305a.294.294,0,0,0-.3-.305h.3l.3.305v.305ZM16.11,3.79h0v.305h0a.3.3,0,0,0-.3-.305l-.3-.305h.3l.3.305c-.3-.305-.3,0,0,0Zm-1.193-.916h0v.305h0a.294.294,0,0,1-.3-.305.3.3,0,0,1-.3-.305h.6c-.3,0-.3.305,0,.305ZM17.6,6.842h0a.294.294,0,0,1-.3.305h0V6.842h0V6.232h.3v.305c-.3,0-.3.305,0,.305Zm-.895-1.526h0v.305h0a.3.3,0,0,0-.3-.305.294.294,0,0,0-.3-.305h.3l.3.305c-.3-.305-.3,0,0,0ZM15.513,4.095c.3,0,.3.305,0,0V4.4h0l-.3-.305h0l-.3-.305h.3l.3.305ZM14.32,3.179h0v.305h0a.294.294,0,0,1-.3-.305h0a.294.294,0,0,1-.3-.305h0c.3,0,.3,0,.6.305Zm1.79,2.442h0v.305h0a.3.3,0,0,0-.3-.305h0a.3.3,0,0,0-.3-.305h.3c0-.305,0-.305.3.305Zm.9,1.221h0a.294.294,0,0,1-.3.305.3.3,0,0,0-.3-.305V6.537h0c.3,0,.3,0,.6.305ZM15.215,4.4h0v.305a.294.294,0,0,1-.3-.305l-.3-.305h0l.6.305Zm-1.193-.916c.3.305,0,.305,0,0V3.79c-.3-.305-.3-.305-.6-.305h0c0-.305.3-.305.6,0ZM12.53.432h0a.3.3,0,0,1,.3.305c-.3,0-.6,0-.3-.305a.914.914,0,0,1-.6.305h0c0-.611.3-.305.6-.305ZM10.74.126h0l.3.305h-.9c0-.305,0-.611.6-.305Zm3.878,1.221h-.9c.3-.305.6,0,.9,0ZM8.95.126h0l.3.305h-.9c0-.305,0-.305.6-.305Zm5.072,1.526h0l.3.305h0a1.035,1.035,0,0,0-.6-.305h-.3c-.3,0-.3,0,0-.305h0a.914.914,0,0,1,.6.305ZM10.442.432h0a.3.3,0,0,1,.3.305v.305H9.547c.3-.611.6-.611.9-.611Zm1.79.305h0l.3.305h0c-.3,0-.6,0-.3-.305l-.3.305h-.3c0-.305,0-.305.6-.305ZM8.95.432h.3v.611H8.055c.3-.305.6-.611.9-.611Zm2.983.916h0l.3.305a.914.914,0,0,1-.6-.305h-.3c0-.305.3-.305.6,0Zm2.088.611h0v.305h0a.294.294,0,0,1-.3-.305.3.3,0,0,1-.3-.305h.3c0,.305,0,.305.3.305ZM10.74,1.042h0v.305h-.6c.3-.305.3-.305.6-.305Zm-1.79,0h0c.3,0,.3.305,0,0l.3.305h-.6l.3-.305Zm4.475,1.526h0v.305h0a.294.294,0,0,1-.3-.305h0c.3-.305.3,0,.3,0Zm-1.492-.916h0v.305h-.3a.294.294,0,0,1,.3-.305Zm-1.492-.305c.3,0,.3.305,0,0l.3.305h-.3c-.3-.305,0-.305,0-.305ZM8.95,1.653h0l.3.305h-.9V1.653h.6Zm2.685.611h0v.305h-.3l.3-.305Zm1.492.611c.3,0,.3.305,0,0v.305a.294.294,0,0,1-.3-.305h-.3c.3-.305.3-.305.6,0Zm-2.983-.916h0l.3.305h-.6c0-.305,0-.305.3-.305Zm-1.193,0c.3,0,.3.305,0,0h0c0,.305-.3.305-.6.305h0l.6-.305ZM5.668,1.042c0-.305.3-.305,0,0,.3,0,.6,0,.3.305a.294.294,0,0,0-.3.305.3.3,0,0,0-.3.305h0c0-.916,0-.916.3-.916Zm-1.492.916h.3v.305h0l-.3.305h0l-.3.305h0c-.3-.611,0-.916.3-.916ZM8.055.126h0a.294.294,0,0,1-.3.305h-.6c.3,0,.6-.305.9-.305ZM2.983,2.874h.3l-.3.305h0l-.3.305h0c-.3,0,0-.305.3-.611ZM7.757.737h.3v.305H6.862a1.08,1.08,0,0,1,.9-.305ZM4.475,2.263h.3a1.035,1.035,0,0,1-.6.305h-.6c.3,0,.6-.305.9-.305Zm1.193-.916h.3a.294.294,0,0,0-.3.305h-.3l.3-.305ZM3.282,3.179h0c.3-.305.3,0,.3,0h0l-.3.305h-.3l.3-.305ZM5.967,1.958c0-.305.3-.305,0,0h.3v.305a1.035,1.035,0,0,1-.6.305h-.6c.3-.305.6-.611.9-.611Zm2.088-.916h0l.3.305h-.9V1.042h.6ZM4.773,2.569h.3a.294.294,0,0,0-.3.305.3.3,0,0,0-.3.305h0V2.874h0l.3-.305ZM3.58,3.484h.3a.294.294,0,0,0-.3.305l-.3.305h0V3.79h0l.3-.305ZM8.055,1.653h0l.3.305h-.9V1.653h.6Zm-1.79.611h0c.3.305,0,.305,0,.305a.3.3,0,0,0-.3.305h0V2.569h0l.3-.305Zm-1.193.916h.3a.294.294,0,0,0-.3.305h0a.294.294,0,0,0-.3.305h0V3.484h0c-.3,0-.3,0,.3-.305Zm-1.193.916h.3l-.3.305h0l-.3.305h0V4.4h0l.3-.305ZM6.265,2.874h0a.3.3,0,0,1,.3.305h-.6V2.874h0c0,.305,0,0,.3,0Zm1.79-.611h0l.3.305a.294.294,0,0,0-.3.305h-.3c-.3-.611-.3-.611.3-.611ZM5.072,3.484h.3a.3.3,0,0,1-.3.305.294.294,0,0,0-.3.305h0l.3-.611Zm-.9,1.221h.3l-.6.611h0c0-.305,0-.305.3-.611ZM.895,5.621h0c.3-.305.6-.305.3,0,0,0,0,.305-.3,0a.429.429,0,0,1,0,.611h0c-.3,0,0-.305,0-.611ZM.3,7.453v0l.3-.305h0c0,.305,0,.305-.3.305l.3.305v.305h0c-.6,0-.6-.305-.3-.611ZM2.088,3.79h0V4.4h0l-.3.305h0a1.354,1.354,0,0,1,.3-.916ZM0,8.979v0l.3-.305h0V9.59h0c-.3,0-.3,0-.3-.611ZM2.387,4.095h0c.3-.305.3-.305.3,0h0a1.073,1.073,0,0,0-.3.611v.305h-.3a1.138,1.138,0,0,1,.3-.916ZM.6,7.453h0l.3-.305a.956.956,0,0,1-.3.611v.305h0V7.453Zm.6-1.526h0c.3-.305.3,0,0,0,.3-.305.3,0,.3,0h0s0,.305-.3,0l.3.305v.305h0c-.6,0-.3,0-.3-.611ZM.3,9.285h0l.3-.305V10.2h0a1.138,1.138,0,0,1-.3-.916ZM1.79,6.232h0a.407.407,0,0,1,.6,0,1.073,1.073,0,0,0-.3.611v.305s0,.305-.3,0h0a.58.58,0,0,1,0-.916ZM2.685,4.4h.3l-.3.305a.294.294,0,0,1-.3.305h0V4.706h0V4.4c.3.305.3,0,.3,0ZM1.193,7.453h.3a.3.3,0,0,1-.3.305v.611h0V7.453Zm-.3,1.526h.3V9.9h0V9.59c-.3-.305-.3-.305-.3-.611ZM2.983,5.011h.3a.3.3,0,0,1-.3.305h0a.3.3,0,0,1-.3.305h0V5.316h0a.294.294,0,0,0,.3-.305ZM2.088,6.537h.3a.3.3,0,0,1-.3.305.294.294,0,0,1-.3.305h0V6.842l.3-.305Zm-.6,1.221h.3v.305h0v.305h0V8.064c-.3,0-.3,0-.3-.305Zm0,1.526h0l.3-.305h0v.305h0V9.9h-.3V9.285ZM2.685,6.842h.3v.305h0v.305h0V7.148c-.6-.305-.6-.305-.3-.305Zm.9-1.526h.3a.3.3,0,0,1-.3.305.3.3,0,0,1-.3.305h0a.956.956,0,0,1,.3-.611ZM2.088,8.064h0c.3,0,.3,0,.3-.305v.611h0c-.3.305-.3.305-.3-.305ZM1.79,9.59c0-.305.3-.305,0,0l.3-.305V10.2h0c-.3-.305-.3-.305-.3-.611Z" transform="translate(2.685 2.01)"/></g><g transform="translate(290.861)"><path class="b" d="M.92.646C5.694,3.7-2.66-1.8.92.646Z" transform="translate(13.414 9.734)"/><path class="a" d="M1.8,0C11.65,6.105,21.495,12.516,31.34,18.622L.015,35.106C.015,23.2-.284,10.379,1.8,0ZM3,2.442C.611,14.348,1.506,22.9,1.506,32.359l26.85-14.043Z"/></g></g></g><g transform="translate(459.733)"><path class="a" d="M38.485,0,79.059,61.055,0,59.833Z" transform="translate(0 3.053)"/><path class="b" d="M74.325,62.581c0-.305-.9-1.221-.9,0h.3A.407.407,0,0,0,74.325,62.581Zm-1.193-2.747c0-.305-.3-.611-.6-.916-1.79.305-2.387,2.442-1.79,3.969.3,0,1.193.305,1.193-.305C71.64,61.36,73.131,60.749,73.131,59.834Zm-1.79-2.442c.3-.611-.3-1.526-.9-1.832-1.492.611-2.088,2.442-2.685,3.663-.3,1.221-1.492,2.442-.6,3.969.3.611.9,0,1.492,0,.9-1.526,0-3.969,1.79-4.884q.895-.458.9-.916Zm-1.79-3.663c0-2.137-2.685-1.526-3.282.305a14.827,14.827,0,0,0-2.387,4.884c-1.193,1.221-.6,3.053-.6,4.884h0c.3.305.6.305.6,0,1.193.305,1.193-.305,1.193-1.221a32.242,32.242,0,0,1,1.79-4.884,18.373,18.373,0,0,1,2.685-3.969ZM67.165,50.37v-.611c-.9-1.832-2.983-.305-3.878.916-1.193.916-.9,2.442-2.088,3.358C60.9,55.254,60,56.475,59.706,57.7a9.249,9.249,0,0,0-.6,4.884c-.3.916,0,1.526,1.193,1.221.3.305.6,0,.895-.305a9.5,9.5,0,0,1,.9-4.884,42.988,42.988,0,0,1,2.685-5.19c.3-1.526,2.088-1.832,2.387-3.053Zm-1.79-3.053c0-.611-.6-1.221-1.193-1.832-1.492-.611-2.685.916-3.58,1.832A25.423,25.423,0,0,0,57.916,52.2c-.3,1.526-.895,2.747-1.193,3.969a24.834,24.834,0,0,0-.895,4.579c.6.611-.6,3.053.6,2.747h.3c.6-1.221.3-3.053.9-4.579a10.409,10.409,0,0,1,1.492-4.274c.3-1.526,1.492-2.747,2.088-4.274a9.373,9.373,0,0,1,3.282-2.747c.895,0,1.193,0,.895-.305ZM62.69,43.654c0-.611-.6-1.526-1.492-1.221-1.79.611-2.387,2.137-3.58,3.358a14.161,14.161,0,0,0-2.685,4.579c-1.193.916-.9,2.442-1.79,3.663-.3,1.832-.6,3.663-.9,5.19,0,1.526-.3,2.747.6,4.274.3,0,1.492.305,1.193-.305-.3-1.832.3-3.663.6-5.19a27.3,27.3,0,0,1,1.492-4.579c.3-1.832,1.492-3.663,2.088-5.19.6-1.832,2.088-2.747,3.58-3.663a.8.8,0,0,0,.9-.916ZM60.9,40.6c.3-.916-1.193-1.832-1.79-2.747-1.193.611-.9,3.053-.3,3.969A4.21,4.21,0,0,0,60,41.212c.6,0,.9-.305.9-.611Zm-3.282,3.053a12.208,12.208,0,0,0-.6-1.832,7.032,7.032,0,0,1,.6-4.884c1.492-.916-1.193-4.274-1.492-2.137-.9,1.221-.3,2.747-.3,3.969a9.123,9.123,0,0,0,1.193,4.884C57.32,44.265,57.618,43.959,57.618,43.654ZM55.53,46.4c0-.611-.6-1.221-.6-2.137-.3-1.832-.9-3.663-.6-5.495-.3-1.832,0-3.969,1.492-5.19.3-.305-1.193-3.053-1.492-1.526-1.193,1.221-1.492,3.053-1.79,4.884,0,1.832.6,3.663.6,5.495a26.242,26.242,0,0,0,1.492,5.19c.6-.611.9-.916.9-1.221Zm-1.79,2.747c.3-.916-1.79-1.221-1.492-2.442-.3-1.526-.6-3.053-.9-4.884,0-2.137-.6-4.579-.3-6.716a24.294,24.294,0,0,1,1.492-4.274c-.3-1.221,1.492-1.221.3-2.137-1.193-2.442-2.387,1.221-2.387,2.442-.3,1.832-.9,3.663-.6,5.495,0,1.832-.3,3.358.3,4.884l.9,4.579a24.3,24.3,0,0,1,1.492,4.274h0c.3.611.6-.305.9-.611,0-.305.3-.305.3-.611Zm-1.79,3.663V51.9a7.762,7.762,0,0,1-1.79-4.274,29.124,29.124,0,0,1-1.193-4.884,15.651,15.651,0,0,1-.3-5.19V33.275c.6-1.526.6-3.663,1.492-5.19-.6-1.526,1.79-1.526.895-2.442-.6-1.832-2.088-1.526-2.387,0-.6,1.832-1.492,3.358-1.492,5.19-.9,1.221.3,2.747-.6,3.358a33.793,33.793,0,0,0,0,5.495c.3,1.526.6,3.358.9,5.19a43.135,43.135,0,0,0,1.79,5.8c.6,1.526,1.492,3.053,2.088,4.274h0c.3,0,.6-.916.6-2.137Zm-.9,4.884c.3-1.221-2.387-1.832-2.088-3.358-.6-1.832-1.79-3.053-1.79-4.884a18.865,18.865,0,0,1-1.492-5.495,12.894,12.894,0,0,1-.6-5.8,32.113,32.113,0,0,1,.3-5.19,40.056,40.056,0,0,1,1.193-5.8c.6-1.526,1.193-3.358,2.387-3.969.6-1.221-1.79-2.137-2.088-.305a13.089,13.089,0,0,0-1.79,4.274c-.9,1.526-.6,3.663-1.193,5.19a30.743,30.743,0,0,0-.6,5.19,20.779,20.779,0,0,0,.6,8.548,27.307,27.307,0,0,0,1.492,4.579c.9,1.526,1.492,3.358,2.387,4.884.9,1.221,1.492,2.747,2.685,3.663h0c.6.305.6-.305.6-.611-.3-.305,0-.611,0-.916Zm-2.088,5.495c0-.916-1.193-2.747-1.492-3.663a17.466,17.466,0,0,0-3.282-4.884c-1.193-1.526-2.685-3.053-4.475-3.358a37.609,37.609,0,0,0-5.668-1.221c-1.79.305-3.58.611-4.773,1.832a10.374,10.374,0,0,0-2.685,2.442,7.267,7.267,0,0,0-2.685,3.969c-.3.916-1.492,3.663-.895,3.663,0-1.221,1.193-2.137,1.79-3.053,1.193-1.221,2.983-1.832,3.878-3.358,1.492,0,2.387-1.221,3.878-1.526,1.79-.916,3.58,0,5.668.305A35.361,35.361,0,0,1,42.7,57.086c.9,1.221,2.088,1.832,2.685,3.358a6.89,6.89,0,0,0,2.685,3.663h.3c.6-.305.6-.611.6-.916Zm-3.58.611c.3-.916-1.193-3.053-2.088-4.274a9.373,9.373,0,0,0-3.282-2.747,10.338,10.338,0,0,0-4.177-1.832,8.6,8.6,0,0,0-4.773,1.221,42.752,42.752,0,0,0-4.475,3.358c-.6.916-1.79,1.832-1.79,3.358-1.193,1.221.6,1.526,1.492,1.526a1.482,1.482,0,0,1,.6-2.747c.6-1.526,2.088-1.832,3.282-2.747a6.931,6.931,0,0,1,3.878-1.526c1.492-.305,3.282-.611,4.773.305a31.775,31.775,0,0,1,3.58,3.053c1.79.305.6,3.663,2.387,3.053h.6Zm-3.58,0c.3-.305-.6-1.526-.6-1.832a13.457,13.457,0,0,0-4.177-3.053,13.658,13.658,0,0,0-5.072.611,40.253,40.253,0,0,0-4.177,3.358c-.9,1.221.6,1.832,1.193.916,1.79.305,1.492-2.747,3.282-2.747,1.492-.916,3.58-.305,5.37.305,1.492.611,1.79,3.358,3.878,2.747h0a.294.294,0,0,1,.3-.305Zm5.37-43.654c0-.305-.6-.916-.895-1.526-.9-.305-2.387,1.832-3.878,1.832-1.492.611-2.983.916-4.475,1.526a4.914,4.914,0,0,1-4.475-1.221,4.135,4.135,0,0,0,3.878,3.053c.6.305,1.492,0,2.088,0,.9-.916,2.088-.305,3.282-.916a10.313,10.313,0,0,0,3.58-2.747ZM43,50.37c0-.305-.3-.916-.3-1.221.3-1.832-1.79-3.053-1.79-.916-1.492,1.526.6,1.221,1.79,2.137.3.305.6.305.3,0Zm1.492-26.253c0-.611-1.79.916-2.387.916-1.492.305-3.282.916-4.773.305-1.492-.916-2.088,2.442-.895,2.137a8.09,8.09,0,0,1,5.967-.305C43.895,28.085,43.6,24.727,44.491,24.117ZM41.508,44.875V44.57c-1.492-.611-2.983.916-3.282,2.442.3.611-1.193,1.832-.3,2.137,1.193.305.6-1.221,1.492-1.832,0-1.526,2.088-1.832,2.088-2.442Zm3.58-27.78c.3-.916-.3-2.137-1.193-1.832A4.78,4.78,0,0,1,41.21,17.4c-1.492.305-2.685.916-4.177.611-1.79,0-3.282-.611-4.773-.611-1.79-.305-2.983-1.832-4.177-2.747-.6-1.526-2.088,0-.9.611a31.782,31.782,0,0,1,3.58,3.053c1.79.305,3.282,1.526,5.072,2.442,1.492.305,2.685-.305,4.177-.611,1.193-.916,3.282-.305,4.177-1.832A1.635,1.635,0,0,0,45.088,17.1Zm-3.58,24.727a2.057,2.057,0,0,0-.3-1.832c-1.193-.611-2.983.305-3.878.916-1.193.611-1.492,2.137-2.088,3.358,0,1.221-.3,2.747.3,3.663.9,0,1.492-1.832,2.088-2.747.3-1.526,1.492-2.137,2.685-2.747.6.305.9,0,1.193-.611Zm.3-4.579c0-.611-.6-.916-1.193-1.221-1.492,0-2.983,1.221-4.773,1.526A5.924,5.924,0,0,0,33.154,40.3c-.9,1.221-1.193,3.053-2.088,4.274,0,1.526-.6,3.663.9,4.579.895,0,2.088-.305,1.492-1.526-.6-1.526,0-3.053.6-4.579a9.625,9.625,0,0,1,3.282-3.663c1.193-.916,2.983-.611,4.475-1.221-.3-.305,0-.611,0-.916Zm.3-4.274a1.633,1.633,0,0,0-2.088-1.526c-1.79.305-3.878.305-5.37,1.221-1.79.305-2.983,2.137-4.475,3.358-.895,1.221-1.492,2.747-2.387,3.969a9.5,9.5,0,0,0-.895,4.884c-.3,1.832,1.492,3.053,1.79,4.884.3.305.6,0,.9-.305-1.193-1.221-.3-3.053-.3-4.579a29.04,29.04,0,0,1,1.79-4.579c.3-1.526,1.79-2.442,2.387-3.663,1.193-.305,2.088-1.832,3.58-1.526,1.193-.916,2.983-.916,4.475-1.526.3.305.6-.305.6-.611Zm.3-2.747v-.611c-.9-1.526-3.282-1.832-4.773-.916-1.193,0-2.387.916-3.58.916-1.492.611-2.983.916-4.475,1.526-1.79.611-2.387,2.137-3.282,3.663-.6,1.832-1.492,3.358-1.79,5.495a50.6,50.6,0,0,0-.3,6.716c-.6,1.832.9,3.663,1.193,5.19h0c.6,1.526,1.492-.611,2.088-.916-.3-.916-1.79-1.832-1.193-3.053a9.658,9.658,0,0,1-.3-5.8c.3-1.832,1.193-3.053,1.79-4.884,1.193-1.526,2.088-2.747,3.282-4.274.9-1.221,2.088-1.526,2.983-2.137a8.665,8.665,0,0,1,4.773-.611c.9-.916,3.282.305,3.58-.305Zm1.492-16.485A1.939,1.939,0,0,0,42.4,12.211a10.933,10.933,0,0,1-5.37,2.442,7.452,7.452,0,0,1-5.072-1.221c-1.492-.611-2.088-1.832-2.685-3.358-1.492,0-2.088,2.747-.6,3.663a10.926,10.926,0,0,0,4.177,2.137c1.492.916,3.282,0,4.773.611A7.6,7.6,0,0,0,42.4,14.348c1.492,0,1.492-.305,1.492-.611ZM37.033,63.192c0-.611-2.088-1.832-2.983-1.221-1.193-.611-3.58,2.137-1.492,2.137h3.58Q37.033,63.649,37.033,63.192Zm4.773-52.507v-.305c-.3-1.526-1.193-2.747-2.387-1.221-1.492.916-2.983.611-4.475.916a10.489,10.489,0,0,1-3.878-2.442c-1.79.916.3,3.053,1.193,3.663,1.193.916,2.685,2.137,4.475,1.526h0a4.351,4.351,0,0,0,2.685-.611c.6.305,2.088-.611,2.387-1.526ZM39.718,6.716c.3-1.832-1.79-1.526-2.088-.305-1.492.916-3.58,0-5.072-.611-1.79,1.221,1.492,2.137,2.387,3.053.3,0,.895.305,1.193,0C37.63,8.853,38.823,7.632,39.718,6.716ZM38.226,3.358c-1.193-.305-2.685,1.221-4.177.305-2.088.305.3,1.526,1.193,1.526A2.641,2.641,0,0,0,38.226,3.358ZM34.348,28.085a3.387,3.387,0,0,0-.3-1.526c.3-.916-.3-2.442-.9-3.663a10.454,10.454,0,0,0-3.878-3.358,8.515,8.515,0,0,0-4.773-.305c-.3.916-.9-.305-1.193,1.221.9.611,2.983.305,4.177,1.221a6.69,6.69,0,0,1,3.58,3.969c0,1.526,2.088,1.221,1.79,3.053a1.736,1.736,0,0,0,1.492-.611ZM37.033,1.526c0-.611-.6-1.526-.9-1.526-.3.611-2.387,2.137-.6,2.442h0l.3.305h.3c.6-.305.895-.611.895-1.221ZM31.365,28.39c0-.916-1.193-2.137-1.79-3.053A12.343,12.343,0,0,0,25.7,22.285c-.895.305-2.088-.916-3.282.305-1.193,0-1.79.916-2.387,2.442.6.611,2.088-1.221,3.282-.916a4.628,4.628,0,0,1,3.878,1.221,18.9,18.9,0,0,1,3.58,3.358h.6V28.39Zm-2.088,1.526c.3-.305-1.193-1.526-1.492-2.137-1.492-1.221-3.282-2.442-5.072-1.832-1.193.611-3.282.916-3.58,2.747,0,1.526.3.611.895,0A4.514,4.514,0,0,1,24.8,28.39a3.723,3.723,0,0,1,3.282,1.832,2.213,2.213,0,0,1,1.193-.305Zm-2.088.916a8.741,8.741,0,0,0-4.475-1.526c-1.193,0-2.685.916-2.387,2.137a7.238,7.238,0,0,1,5.072,0h0C25.994,32.054,26.889,31.443,27.188,30.833ZM23.906,54.949c0-.611-.895-.916-1.492-1.526-.6-.916-2.387-3.053-3.282-1.221,1.193,1.221,2.685,2.137,3.58,3.969C23.608,55.56,23.906,55.254,23.906,54.949Zm-1.193,7.937Zm.9-10.685a35.139,35.139,0,0,1-.9-5.495c-.6-2.137-.9,1.221-1.193,1.832-1.492,1.526.9,2.747,1.79,3.663Zm-1.492,5.19c-1.193-1.221-1.492-2.137-2.685-3.053-.895-1.221-1.492.611-2.685.305-2.088,1.221.6,1.221,1.492,2.137a6.554,6.554,0,0,1,2.685,3.663h0v.305c.6,0,1.193-2.442,1.193-3.358ZM25.1,33.275c-1.193-.305-2.685-1.221-3.878,0-.3,1.221.9,1.832,2.088,1.832.6-.305,2.088-.305,1.79-1.832ZM26.889,17.1a.956.956,0,0,0-.3-.611c-.6-1.832-2.387.305-.9.611.6.305,1.193.305,1.193,0ZM20.624,63.5c.3-.916-1.492-1.221-1.193-2.442,0-1.832-1.79-2.747-2.983-4.274-1.79-.916-3.58,0-5.072.611-1.79.611-3.282.916-5.072,1.526-.895,1.221-2.088,2.137-2.685,3.663.9.611,2.387-.305,2.983-.611.6-1.221,1.79-1.526,2.685-2.442a6.96,6.96,0,0,1,3.58-.916c.9,1.526,2.983-.305,4.177,1.221a12.842,12.842,0,0,1,2.685,4.274h.9c-.3-.305,0-.305,0-.611Zm2.088-18.011h0c0-1.221-.3-.916-.3,0,0,.611.3.305.3,0Zm.9-7.632c.3-.916,0-1.832-1.492-1.526a15.231,15.231,0,0,0,.3,5.19h0l.3.305c.6,0,0-2.137.6-3.053,0-.305.3-.611.3-.916Zm-.9,6.105c0-.611-.3-.916-.3.305A.3.3,0,0,0,22.713,43.959Zm-1.79.611a6.72,6.72,0,0,0,0-2.442c-.3-1.832-.9-3.969-.6-5.8a26.376,26.376,0,0,0-1.79-5.19c-.9-2.137-2.088,0-2.387.916,1.193.916,1.79,2.747,2.387,3.969a17.652,17.652,0,0,1,.895,5.495c.3,1.832-.6,3.358-1.193,4.884-.3,1.526-1.193,2.747-1.492,4.274a7.079,7.079,0,0,1-3.282,3.358c-1.193,1.221-2.983,1.526-4.773,1.832a25.089,25.089,0,0,0-4.773.305c-1.193-.916-3.282.305-2.387,1.526.9.305,1.79-.305,2.983-.305,2.088.305,3.58-.916,5.668-.916a15.671,15.671,0,0,0,5.072-2.442,15.773,15.773,0,0,0,3.282-3.053c.9-1.221,2.088-2.442,2.088-3.969a7.754,7.754,0,0,1,.3-2.442ZM17.641,63.8a1.138,1.138,0,0,0-.3-.916c-1.193-1.221-2.088-3.053-3.878-2.747a4.707,4.707,0,0,0-4.773,1.526c-1.79.916.6,1.526,1.492.916.3-2.137,2.387-1.526,3.878-1.832,1.79.305,1.492,2.747,2.983,2.747.3.611.6.611.6.305Zm0-21.674V40.907a10.467,10.467,0,0,0-1.492-5.19c-.3-1.526-1.79-2.442-2.088-.611-1.492,1.221.3,1.832.9,3.053,1.193,1.221,1.492,3.358,1.492,5.19a10.612,10.612,0,0,1-.6,4.274,3.527,3.527,0,0,0,.9-2.137,11.019,11.019,0,0,0,.895-3.358Zm-1.79,5.8ZM13.763,63.192c.3-.305-.6-.916-1.193-.611-1.193-.305-1.193.916,0,.611h1.193Zm.6-12.516Zm0,.305a.914.914,0,0,0-.6.305c-.9,1.221-2.685,1.526-3.58,2.442a3.207,3.207,0,0,0,2.685-1.221,3.638,3.638,0,0,0,1.492-1.526Zm0-4.579c0-1.832.6-3.663,0-5.495-.3-.916-1.79-4.579-2.387-2.137-1.193,1.221.9,1.526,1.193,2.747a9.1,9.1,0,0,1,.3,4.884c-.895,1.526-1.492,3.358-2.685,4.579A6.794,6.794,0,0,1,5.409,52.2c-.9-1.221-1.79-.305-1.79.916.6.305.9,0,1.492,0,1.492-.611,3.282,0,4.475-.916a6.879,6.879,0,0,0,2.685-1.832c1.79-1.221,1.79-2.442,2.088-3.969Zm-2.387-1.526c.3-1.526.3-2.747-.9-3.663-2.088.305.9,2.747,0,3.969,0,2.137-2.088,2.137-3.282,3.053-1.193-.611-3.282,1.526-1.79,2.137h0a4.666,4.666,0,0,0,3.878-.916,9.255,9.255,0,0,0,2.088-4.579ZM9.884,53.728a10.508,10.508,0,0,0-3.282.611A3.194,3.194,0,0,0,9.884,53.728Zm-.6-8.853c.3-1.832-.9,0-1.193.916C8.094,47.012,9.586,45.486,9.288,44.875ZM8.094,46.1ZM6.3,54.644h0Zm-.895,0s-1.492,0-1.79-.305c-1.79,0-.3.611.6.611h.6a.914.914,0,0,1,.6-.305ZM3.918,59.223c-.3-.305-2.088.305-2.685.916,0,.916-1.492,2.137-1.193,2.747,2.088.916,2.088-1.832,3.282-2.747.3-.305.6-.611.6-.916Zm-.6,3.663Z" transform="translate(2.646)"/></g></g></svg>