<?xml version="1.0" encoding="utf-8"?>
<!-- Generator: Adobe Illustrator 21.1.0, SVG Export Plug-In . SVG Version: 6.00 Build 0)  -->
<svg version="1.1" id="Layer_1" xmlns="http://www.w3.org/2000/svg" xmlns:xlink="http://www.w3.org/1999/xlink" x="0px" y="0px"
	 viewBox="0 0 8 8" style="enable-background:new 0 0 8 8;" xml:space="preserve">
<path class="st0" d="M8,7.5C8,7.8,7.8,8,7.5,8h-7C0.2,8,0,7.8,0,7.5v-7C0,0.2,0.2,0,0.5,0h7C7.8,0,8,0.2,8,0.5V7.5z M5.5,8V5h1
	l0.2-1.2H5.5V3.2c0-0.5,0.3-0.8,0.8-0.8h0.5V1.2c-0.2,0-0.6,0-1,0C4.8,1.2,4.2,2,4.2,3v0.8h-1V5h1v3H5.5z"/>
</svg>
