<?xml version="1.0" encoding="utf-8"?>
<!-- Generator: Adobe Illustrator 21.1.0, SVG Export Plug-In . SVG Version: 6.00 Build 0)  -->
<svg version="1.1" id="Layer_1" xmlns="http://www.w3.org/2000/svg" xmlns:xlink="http://www.w3.org/1999/xlink" x="0px" y="0px"
	 viewBox="0 0 32 32" style="enable-background:new 0 0 32 32;" xml:space="preserve">
<g>
	<path class="st0" d="M32,6.2c-1.2,0.5-2.4,0.9-3.8,1c1.4-0.8,2.4-2.1,2.9-3.6c-1.3,0.7-2.7,1.3-4.2,1.6c-1.2-1.3-2.9-2-4.8-2
		c-3.6,0-6.6,2.9-6.6,6.5c0,0.5,0.1,1,0.2,1.5C10.3,10.9,5.5,8.3,2.2,4.4c-0.6,1-0.9,2.1-0.9,3.3c0,2.2,1.2,4.2,2.9,5.4
		c-1.1,0-2.1-0.3-3-0.8c0,0,0,0.1,0,0.1c0,3.1,2.3,5.7,5.3,6.3c-0.5,0.1-1.1,0.2-1.7,0.2c-0.4,0-0.8,0-1.2-0.1
		c0.8,2.6,3.3,4.4,6.1,4.5C7.5,25,4.6,26,1.6,26C1,26,0.5,26,0,25.9c2.9,1.8,6.4,2.9,10.1,2.9c12.1,0,18.7-9.9,18.7-18.4
		c0-0.3,0-0.6,0-0.8C30,8.7,31.1,7.5,32,6.2z"/>
</g>
</svg>
